<?xml version="1.0" encoding="utf-8"?>
<!-- Generator: Adobe Illustrator 14.0.0, SVG Export Plug-In . SVG Version: 6.00 Build 43363)  -->
<!DOCTYPE svg PUBLIC "-//W3C//DTD SVG 1.1//EN" "http://www.w3.org/Graphics/SVG/1.1/DTD/svg11.dtd">
<svg version="1.1" id="Layer_1" xmlns="http://www.w3.org/2000/svg" xmlns:xlink="http://www.w3.org/1999/xlink" x="0px" y="0px"
	 width="612px" height="792px" viewBox="0 0 612 792" enable-background="new 0 0 612 792" xml:space="preserve">
<g>
	<polygon fill-rule="evenodd" clip-rule="evenodd" fill="#FFFFFF" points="209,300 401.756,300 401.756,492.756 209,492.756 
		209,300 	"/>
	<path fill-rule="evenodd" clip-rule="evenodd" fill="#ED1C24" d="M313.415,332.575c35.789,0,64.977,29.188,64.977,64.976
		c0,35.789-29.188,64.979-64.977,64.979c-35.788,0-64.977-29.189-64.977-64.979C248.438,361.763,277.627,332.575,313.415,332.575
		L313.415,332.575z"/>
	<path fill-rule="evenodd" clip-rule="evenodd" d="M313.415,350.812c25.744,0,46.741,20.996,46.741,46.739
		c0,25.746-20.997,46.742-46.741,46.742c-25.744,0-46.74-20.996-46.74-46.742C266.675,371.808,287.671,350.812,313.415,350.812
		L313.415,350.812z"/>
	<path fill="#FFFFFF" d="M361.023,408.627c1.947-0.617,3.582-0.809,5.566,0.703c2.892,2.203,6.737,5.846,11.092,5.695
		c1.569-0.053,3.237-0.313,3.237-1.965c0.002-3.17-5.67-5.387-6.765-8.143c0.441-0.287,1.925-0.662,2.539-0.645
		c1.457-0.168,6.395,1.445,9.888,1.316c1.974-0.072,3.578-0.414,3.701-2.494c0.181-3.092-2.893-4.684-6.56-5.869
		c-4.29-1.384-9.414-2.021-11.45-2.505c0.82-1.994,3.018-3.989,4.979-5.837c1.896-1.633,7.196-4.029,7.269-7.005
		c0.05-2.06-1.535-2.359-3.207-2.461c-3.522-0.216-6.169,0.86-9.185,2.407c-2.882,1.478-5.676,3.299-8.743,4.457
		c-0.8,0.278-2.18,0.444-3.551,0.458c-1.458,0.015-2.907-0.143-3.633-0.518c-1.416-0.874-2.071-4.34-2.315-5.917
		c-1.117-7.223-7.291-14.013-13.467-17.363l0,0c-4.77-2.588-8.604-3.002-13.096-3.486c-1.654-0.178-3.351-0.529-5.004-0.616
		c-0.002-2-0.953-3.95-1.521-5.868c-0.917-3.096-2.742-5.704-3.776-8.762c-1.356-4.008,0.315-8.183-0.951-12.316
		c0.479-0.009,1.387-0.333,1.403-0.769c0.03-0.832-0.883-2.068-0.411-2.288c5.123-1.171,7.89-1.77,9.613-4.649
		c0,0-0.001-0.001-0.002-0.001c0.255-0.685,0.555-1.042,0.81-1.727c0.065-0.783-0.118-1.19-0.482-1.341
		c-1.189-0.494-3.598,0.799-5.504,0.656c-0.635-0.047-1.22-0.296-1.693-0.894c-2.679-2.679-1.356-7.224-6.344-7.393
		c-4.588-0.156-9.728,2.492-12.728,5.554c-0.938,1.192-1.764,0.968-2.305,0.968c-1.432,0.001-2.722-0.164-3.95,0.126
		c-1.794,0.424-3.382,1.33-4.829,3.09c-0.373,0.445-0.704,0.757-1.177,1.089c-4.504,3.152-5.407,9.579-8.126,14.078
		c-1.408,2.331-3.119,4.894-5.231,6.633c-2.595,2.134-3.534,4.683-5.035,7.51c-2.14,4.028-1.683,6.576-0.07,10.344
		c1.235,1.739,1.548,3.319,2.193,5.569c-3.208,2.23-7.744,5.589-9.61,9.007c-2.137,3.916-6.479,5.661-9.528,8.671
		c-1.097,0.785-2.396,1.773-3.492,2.559c-4.869-2.471-9.609-5.26-14.619-7.55c-1.458-0.667-8.823-4.177-12.967-3.915
		c-1.921,0.122-3.387,1.703-2.186,3.255c1.771,2.292,5.795,3.867,7.307,5.99c-2.686,2.199-8.626,3.682-8.305,6.667
		c0.106,0.992,1.912,1.993,3.975,1.929c2.517-0.078,4.648-0.193,5.618,0.136c-0.053,2.224-3.153,3.888-4.377,5.605
		c-0.599,0.838-0.776,1.729,0.015,2.781c1.404,1.967,7.718-0.361,9.356-0.859c1.816,0.854,6.223,4.137,8.098,3.84
		c0.667,0.148,1.402-0.174,2.069-0.025c3.556,1.572,5.034,5.746,8.872,6.488c0.774,0.15,1.469,0.48,2.187-0.057
		c1.994-1.361,1.714-3.703,0.59-6.496c1.662-0.506,4.24-1.168,5.624-2.168c0,0,0,0,0,0c2.035-1.469,4.314-2.561,6.409-3.943
		c1.767-1.164,3.375-1.471,5.405-1.891c0.157,1.967,0.621,3.791,1.337,5.627c0.965,2.475,1.722,5.359,3.044,7.635
		c3.423,5.893,8.007,12.291,14.038,15.758c-0.076,0.16-0.151,0.32-0.226,0.482c-0.16,0.338-0.321,0.68-0.48,1.02
		c0,0,0.001,0,0.003,0c-0.751,1.086-4.804,3.861-5.716,5.436c7.947,6.219,17.938,9.934,28.772,9.934
		c22.068,0,40.651-15.406,45.548-36.014l1.985,0.746L361.023,408.627L361.023,408.627z"/>
	<path d="M294.316,350.319c0.181-0.607,1.884,0.987,3.123,0.883c0.415-0.034,0.812-0.27,1.042-0.92
		c0.241-0.688,0.579-1.07,0.848-1.053c0.212,0.014,0.282,0.977,0.062,1.764c-0.25,0.893-1.368,2.024-2.33,1.975
		C295.92,352.908,294.017,351.323,294.316,350.319L294.316,350.319z M304.736,337.478c0.156,0.42,0.128,0.903,0.044,1.978
		c-0.083,1.075-0.986,2.532-1.642,2.494c-0.656-0.038-1.466-1.493-1.316-3.117c0.122-1.326,0.921-3.048,2.477-2.901
		c0.525,0.05,1.023,0.532,1.329,1.176c0.306,0.643,0.415,1.447,0.38,1.888c-0.014,0.18-0.101,0.209-0.148,0.214
		c-0.077,0.008-0.14-0.094-0.248-0.364C305.429,338.39,305.258,337.681,304.736,337.478L304.736,337.478z M293.912,336.093
		c0.189,0.311,0.365,0.653,0.365,1.729c0,1.076-0.849,2.885-1.519,2.908c-0.669,0.023-1.628-1.378-1.628-3.042
		c0-1.358,0.6-3.178,2.246-3.178c0.539,0,1.088,0.445,1.459,1.07c0.371,0.625,0.555,1.423,0.531,1.883
		c0.001,0.161-0.19,0.128-0.234,0c-0.09-0.198-0.194-0.389-0.313-0.571C294.571,336.514,294.235,336.133,293.912,336.093
		L293.912,336.093z M295.127,358.715c1.387,0,2.517,1.678,2.517,3.734c0,2.057-1.13,3.734-2.517,3.734
		c-1.386,0-2.516-1.677-2.516-3.734C292.611,360.393,293.741,358.715,295.127,358.715L295.127,358.715z M254.996,402.453
		c0.646-0.172-0.033,2.17,0.063,2.607c1.719-0.428,4.262-1.002,5.597-2.338c4.094-3.037,8.189-4.891,12.284-6.315
		c0.927-0.174,5.53-0.859,5.157,0.074c-0.542,0.585-1.932,1.108-3.252,1.364c-0.026,2.949,0.91,6.365,2.486,9.119
		c2.797,7,8.527,13.865,14.958,17.918c3.467,2.186,12.04,5.656,19.763,7.426c6.913,1.584,10.492,1.297,12.364,1.941
		c0.404,1.305-4.104,0.771-6.981,0.568c-8.294-0.588-21.085-5.172-24.552-7.002c-1.162,2.758-4.755,5.014-6.918,6.979
		c-0.543,0.494-1.085,0.988-1.442,0.412c-0.724-1.17,4.935-4.908,5.837-6.213c-0.001,0-0.002,0-0.003,0
		c0.236-0.5,0.471-1.002,0.707-1.502c-6.031-3.467-10.615-9.865-14.038-15.758c-1.322-2.275-2.079-5.16-3.044-7.635
		c-0.716-1.836-1.18-3.66-1.337-5.627c-2.03,0.42-3.638,0.727-5.405,1.891c-2.095,1.383-4.374,2.475-6.409,3.943c0,0,0,0,0,0
		c-1.384,1-3.961,1.662-5.624,2.168c1.125,2.793,1.404,5.135-0.59,6.496c-0.718,0.537-1.413,0.207-2.187,0.057
		c-3.837-0.742-5.315-4.916-8.872-6.488c-0.667-0.148-1.402,0.174-2.069,0.025c-1.875,0.297-6.282-2.986-8.098-3.84
		c-1.639,0.498-7.953,2.826-9.356,0.859c-0.791-1.053-0.614-1.943-0.015-2.781c1.224-1.717,4.324-3.381,4.377-5.605
		c-0.969-0.329-3.101-0.214-5.618-0.136c-2.063,0.063-3.868-0.938-3.975-1.929c-0.321-2.985,5.619-4.468,8.305-6.667
		c-1.512-2.124-5.536-3.699-7.307-5.99c-1.201-1.553,0.265-3.134,2.186-3.255c4.144-0.262,11.508,3.249,12.967,3.915
		c5.01,2.29,9.75,5.079,14.619,7.55c1.097-0.786,2.395-1.774,3.492-2.559c3.048-3.01,7.391-4.755,9.528-8.671
		c1.866-3.417,6.402-6.777,9.61-9.007c-0.645-2.25-0.958-3.831-2.193-5.569c-1.612-3.768-2.07-6.316,0.07-10.344
		c1.5-2.827,2.44-5.376,5.035-7.51c2.112-1.739,3.823-4.302,5.231-6.633c2.719-4.499,3.623-10.926,8.126-14.078
		c0.474-0.333,0.804-0.645,1.177-1.089c1.446-1.76,3.034-2.666,4.829-3.09c1.228-0.29,2.518-0.125,3.95-0.126
		c0.541,0,1.367,0.225,2.305-0.968c3-3.063,8.14-5.71,12.728-5.554c4.987,0.169,3.665,4.714,6.344,7.393
		c0.474,0.598,1.059,0.846,1.693,0.894c1.906,0.143,4.314-1.15,5.504-0.656c0.364,0.151,0.548,0.558,0.482,1.341
		c-0.255,0.685-0.555,1.042-0.81,1.727c0.001,0,0.002,0.001,0.002,0.001c-1.724,2.879-4.49,3.478-9.613,4.649
		c-0.472,0.219,0.441,1.456,0.411,2.288c-0.017,0.436-0.925,0.76-1.403,0.769c1.267,4.134-0.405,8.309,0.951,12.316
		c1.034,3.058,2.859,5.666,3.776,8.762c0.568,1.917,1.52,3.867,1.521,5.868c1.653,0.087,3.35,0.438,5.004,0.616
		c4.491,0.484,8.326,0.898,13.096,3.486l0,0c6.176,3.35,12.35,10.141,13.467,17.363c0.244,1.578,0.899,5.043,2.315,5.917
		c0.726,0.375,2.175,0.533,3.633,0.518c1.371-0.014,2.751-0.18,3.551-0.458c3.067-1.157,5.861-2.979,8.743-4.457
		c3.016-1.547,5.662-2.623,9.185-2.407c1.672,0.102,3.257,0.401,3.207,2.461c-0.072,2.976-5.372,5.372-7.269,7.005
		c-1.962,1.849-4.159,3.843-4.979,5.837c2.036,0.484,7.16,1.121,11.45,2.505c3.667,1.186,6.74,2.777,6.56,5.869
		c-0.123,2.08-1.728,2.422-3.701,2.494c-3.493,0.129-8.431-1.484-9.888-1.316c-0.614-0.018-2.098,0.357-2.539,0.645
		c1.095,2.756,6.767,4.973,6.765,8.143c0,1.652-1.668,1.912-3.237,1.965c-4.354,0.15-8.2-3.492-11.092-5.695
		c-2.442-1.861-4.773-0.676-7.392-0.086c-1.854,0.754-8.864,0.865-11.037,0.295c-4.208,1.557-7.054,1.631-11.563,1.361
		c-1.408-0.592-2.186-1.666-2.164-2.846c0.05-2.791,3.392-6.469,4.877-7.867c-2.017-1.707-3.568-2.281-4.289-5.055
		c-0.394-1.52,0.28-2.989,0.981-1.725c0.101,0.181,0.708,0.228,0.781,0.537c0,0,0-0.001,0-0.002
		c0.733,2.786,2.121,3.408,3.877,5.244c0.894-0.346,0.688-1.326,2.363-1.783c0.52-0.08,0.563,0.49,0.265,1.039
		c-0.385,0.707-1.251,1.469-1.509,1.674c-1.045,0.836-2.239,1.438-3.179,2.6c-0.624,0.771-2.418,3.326-2.316,4.258
		c0.149,1.342,0.896,1.799,1.812,2.033c4.439,1.131,10.375-0.877,15.161-2.703c0.886-0.34,1.797-1.059,2.523-0.977
		c0.72,0.779-2.209,2.244-4.104,2.932c1.469,0.406,2.923,0.57,4.278,0.277c2.773-0.602,5.318-2.146,8.168-1.951
		c4.304,0.293,7.638,6.797,12.82,7.209c0.064,0.006,0.127,0.01,0.188,0.012c0.936,0.027,1.697-0.314,1.517-1.281
		c-0.613-3.309-6.379-6.527-7.289-7.828c-0.505-0.723,4.413-1.723,5.119-1.742c3.021-0.084,6.369,1.473,9.153,1.123
		c4.736-0.592,0.56-4.744-1.706-5.357c-3.554-0.963-7.89-2.199-11.571-2.801c-0.097,0.93,0.13,2.182-0.419,2.465
		c-0.855,0.01-1.066-1.514-1.134-3.042c-0.049-1.11,2.434-4.204,3.163-5.037c1.486-1.701,3.221-3.192,5.118-4.38
		c0-0.668,5.466-2.844,2.691-4.387c-3.394-1.792-7.772,0.912-10.773,2.492c-3.143,1.481-6.285,2.963-9.428,4.445
		c-1.459,0.438-2.01,0.676-3.438,1.204c-1.288,0.438-0.081-1.212-0.007-1.688c-1.369,0.038-3.134,0.218-4.678,0.387
		c-2.298-0.996-1.479-6.527-2.414-9c-2.352-6.156-6.761-12.119-12.571-15.143c-2.307-1.202-4.629-2.274-7.15-2.761
		c-3.041-0.586-6.308-0.486-9.328-0.891c-0.834,5.136-2.644,7.946-6.011,11.898c-0.488,0.574-0.509,0.502-0.636,0.387
		c-0.076-0.069-0.61,0.245-0.155-0.458c2.576-3.97,5.681-8.593,5.407-12.644c-0.245-3.624-1.188-6.302-3.017-9.517
		c-0.959-1.687-1.575-3.218-1.996-4.83c-1.153-4.406,0.59-8.646-1.15-13.195c-0.259-1.996-1.879-3.834-2.281-5.014
		c-0.178-0.523,0.356-0.839,0.771-0.337c0.796,0.967,1.347,2.319,2.144,3.287c-0.031-1.013,0.162-2.103,0.885-2.289
		c0.608-0.157,1.527-0.117,2.229-0.454c0.698,0.176,7.966-2.461,7.58-4.503c-0.158-0.84-3.098,0.507-3.77,0.594
		c0,0-0.001,0.001-0.001,0.002c-0.106,0.008-0.215,0.012-0.323,0.012c-5.56-0.003-4.424-7.652-8.635-7.974
		c-0.734-0.056-1.585-0.163-2.551,0.15c-5.618,0.277-8.341,6.287-13.031,6.034c-2.152-0.116-4.745,0.3-6.243,2.083
		c-0.72,0.857-1.648,1.98-2.565,2.622c-1.875,1.311-2.951,4.67-4.128,6.896c-1.621,4.149-4.203,8.326-7.157,11.64
		c-1.268,1.422-3.327,2.962-4.114,4.694c-1.369,3.012-3.308,5.415-2.657,8.892c0.42,2.242,2.293,6.482,3.282,8.19
		c0.369,0.637,1.329,2.2,2.234,3.62c0.799,1.252,1.72,2.475,0.912,3.056c-0.364,0.261-2.119-2.712-3.907-3.901
		c-2.239,1.571-4.157,3.273-6.272,4.96c-2.299,1.833-3.274,4.536-5.417,6.596c-1.602,1.537-3.27,2.941-5.118,4.172
		c-1.83,1.219-3.407,3.104-5.286,4.236c0.459,0.191,3.183,0.756,2.825,1.483c-0.45,0.912-2.845,0.268-4.1-0.133
		c-1.99-0.635-4.049-1.631-5.092-2.413c-1.216-0.658-11.947-6.579-12.566-6.879c-2.989-1.454-7.095-2.81-9.116-2.87
		c-0.675-0.02-1.148,0.016-1.322,0.45c-0.228,0.262-0.254,0.542-0.134,0.83c0.519,1.25,3.914,2.9,5.466,4.204
		c0.779,0.655,4.187,3.358,3.89,5.182c-0.137,0.841-2.421-1.159-3.125-1.981c-1.162,0.695-2.55,1.614-3.705,2.324
		c0-0.001,0-0.002,0-0.003c-0.391,0.241-3.436,2.084-3.171,2.48c-0.125,2.735,6.244,1.461,8.257,1.833
		c1.314,0.242,4.344,2.64,3.508,3.317c-0.221,0.158-0.548-0.201-0.904-0.393c-0.784-0.42-1.706-1.086-1.932-1.13
		c-0.755,1.487-2.196,3.649-3.484,4.683c-0.055,0.045-0.767,0.602-0.74,0.656c0,0,0,0,0,0c0.005,0.102,0.01,0.201,0.015,0.303
		c-0.211,0.844,0.139,1.23,0.769,1.344c1.386,0.25,4.53-0.682,5.632-1.076c-0.744-0.816-0.698-2.51,0.008-2.158
		c1.318,0.656,6.005,4.326,7.755,5.4c0.4-0.584,0.363-1.271,0.817-1.459c1.362-0.564,3.117,1.232,4.54,1.861
		c3.098,1.369,3.797,3.607,6.301,5.52c0.684,0.521,1.753,0.441,2.567,0.627c1.311-1.809,0.002-3.264-0.357-5.063
		C253.26,405.057,254.495,402.586,254.996,402.453L254.996,402.453z M225.591,401.119c-0.008,0.002-0.015,0.006-0.023,0.01
		C225.576,401.125,225.583,401.121,225.591,401.119L225.591,401.119z M292.113,332.279c-0.133,0.746-0.456,1.051-0.852,1.111
		c-0.357,0.054-0.686-0.353-0.603-1.074c0.168-1.481,1.934-3.045,3.057-3.528c0.511-0.22,0.911-0.229,0.924,0.09
		c0.012,0.305-2.33,1.433-2.431,2.643C292.177,331.774,292.145,332.026,292.113,332.279L292.113,332.279z M303.578,329.226
		c0.307-0.322,0.668-0.037,1.046,0.034c1.64,0.308,3.618,3.277,3.048,3.917c-0.273,0.158-1.403-0.744-2.411-1.728
		C304.252,330.465,303.178,329.586,303.578,329.226L303.578,329.226z"/>
	<polygon fill="#ED1C24" points="361.304,383.713 352.286,365.576 259.425,413.352 268.148,431.791 361.304,383.713 	"/>
</g>
</svg>
